<svg id="Layer_1" data-name="Layer 1" xmlns="http://www.w3.org/2000/svg" viewBox="0 0 283.6 280.41"><defs><style>.cls-1{fill:#f7e8de;}.cls-2{fill:#f2ad7d;}.cls-3{font-size:104.31px;stroke-width:1.04px;}.cls-3,.cls-4,.cls-5,.cls-6{fill:#3d6e9a;stroke:#3d6e9a;stroke-miterlimit:10;}.cls-3,.cls-4,.cls-5{font-family:IndieFlower, Indie Flower;}.cls-4{font-size:173.82px;}.cls-4,.cls-5{stroke-width:1.16px;}.cls-5{font-size:173.81px;}.cls-6{stroke-width:1.16px;}</style></defs><title>brand</title><circle class="cls-1" cx="137.19" cy="129.44" r="124.5"/><path class="cls-2" d="M249.71,130.46c-.27,48.81-29.92,95-75.95,112.72a103.85,103.85,0,0,1-16,4.78c-1.33.28-2.67.55-4,.79s-1.12.19-3,.43q-2.4.31-4.81.52l-2.08.17c-2.3.18,1.59,0-.73.05A92.59,92.59,0,0,1,110.82,246,117.18,117.18,0,0,1,53.49,206.9C22.17,167.84,17.92,111.7,43.42,68.51c11.89-20.13,29.52-37,50.64-47.15a111.41,111.41,0,0,1,16.76-6.51,104.93,104.93,0,0,1,15.51-3.24,90.57,90.57,0,0,1,31.39,1.32c47.05,10,83.47,51.6,90.58,98.81a130.25,130.25,0,0,1,1.4,18.71c0,7,26,7,26,0-.3-54.75-36.27-103.59-87.94-121.29C133.4-9.48,68.87,4,31,48.32-4.4,89.7-8.88,151,19.76,197.24c30.83,49.76,91.62,70.24,147.74,59.87,53.5-9.88,97.38-51.86,106.45-106a129.63,129.63,0,0,0,1.72-20.73C275.7,123.47,249.75,123.35,249.71,130.46Z" transform="translate(-1 -1)"/><text class="cls-3" transform="matrix(1, -0.03, 0.03, 1, 25.57, 107.15)">move</text><text class="cls-4" transform="translate(159.79 195.4) rotate(-6.28)">»</text><text class="cls-5" transform="translate(110.18 174.06) rotate(-13.53)">_</text><path class="cls-6" d="M111.35,217.51q-.22-2.51-.35-7.95t-.25-12.14q-.12-6.71-.22-14.14t-.16-14.21q-.07-6.78-.13-12.15t0-7.93q.08-1.22,0-4.72a69.6,69.6,0,0,1,.23-7.72,60.18,60.18,0,0,1,1.2-8.16,15.27,15.27,0,0,1,2.4-6,2,2,0,0,1,2.06-.88,4.49,4.49,0,0,1,2,.81q.27.2.73,4.5T120,138.1q.69,6.93,1.31,15.93t1.08,18.75q.47,9.75.67,19.29t-.15,17.7a128.12,128.12,0,0,1-1.26,14q-.91,5.82-2.76,8.25a7.62,7.62,0,0,1-1.9,1.65,10.51,10.51,0,0,1-2.79,1.29,9.48,9.48,0,0,1-3,.4,3,3,0,0,1-2.33-1.14,6.9,6.9,0,0,1-2-4.39,8.47,8.47,0,0,1,1.1-4q1.06-2,2.19-4A9.33,9.33,0,0,0,111.35,217.51Z" transform="translate(-1 -1)"/><path class="cls-6" d="M177.71,157.35q-7.08,1-14.84,1.89T147.25,161q-7.85.83-15.52,1.82-8,1-14.94,2.15-2.87.56-7.64,1.93t-10.22,2.65q-5.45,1.29-11,2.33A61.8,61.8,0,0,1,77.78,173q-3.11-2-1.23-4.05t7.12-4.21A108.51,108.51,0,0,1,97,160.48q8.12-2.1,17.3-3.89t18.94-3.41q9.76-1.62,18.38-2.81t15.32-2q6.71-.8,10.16-.87l2.3,0a14.15,14.15,0,0,1,2.21.13,3.77,3.77,0,0,1,1.94.9,4.39,4.39,0,0,1,1.29,2.27,1.84,1.84,0,0,1-.63,2,26.14,26.14,0,0,1-2.36,2.08,14.84,14.84,0,0,1-2.56,1.66Z" transform="translate(-1 -1)"/><path class="cls-6" d="M51.9,149.39a2.15,2.15,0,0,1,1.23-2.24,8.38,8.38,0,0,1,3.16-.51,5.29,5.29,0,0,1,3.25,1.23,14.17,14.17,0,0,1,3.33,3.1,6.83,6.83,0,0,1,1.49,3.18q.17,1.73-2.63,2h-.88a27.44,27.44,0,0,1-4.39-.29,6.89,6.89,0,0,1-2.72-.94,3.66,3.66,0,0,1-1.4-1.95A11.7,11.7,0,0,1,51.9,149.39Zm8.95,36.22v-2.17q0-1.59.09-3.32c.06-1.16.09-2.26.09-3.32v-2.16q-.7-4.47,3.16-4.47a5.8,5.8,0,0,1,3,.72,7.79,7.79,0,0,1,2.28,2.16,56.74,56.74,0,0,0,.79,14.5q1.32,7,3,13.85t3.16,13.78a68.52,68.52,0,0,1,1.49,14.43,6.78,6.78,0,0,1-1.49,4,5.2,5.2,0,0,1-4.47,2q-2.28,0-3.95-3.25a38.14,38.14,0,0,1-2.89-8.22q-1.23-5-2.1-11t-1.32-11.62q-.44-5.55-.61-10T60.85,185.61Z" transform="translate(-1 -1)"/></svg>